<?xml version="1.0" encoding="UTF-8" standalone="no"?>
<svg width="400" height="300" viewBox="0 0 400 300" xmlns="http://www.w3.org/2000/svg">
  <!-- Dinosaur outline -->
  <g fill="#4CAF50">
    <!-- Body -->
    <path d="M280,150 C280,120 320,120 340,130 C360,140 350,180 330,190 C300,200 290,190 280,180 L220,190 L190,210 L150,210 L140,190 L90,180 L70,170 L50,160 L50,140 L70,130 L100,140 L120,150 L140,160 L170,160 L180,150 L200,140 L230,140 L250,140 Z" />
    
    <!-- Head and neck -->
    <path d="M330,130 C350,110 370,90 380,70 C390,50 390,30 380,20 C370,10 350,10 330,20 C310,30 300,50 290,70 C280,90 270,110 280,120 Z" />
    
    <!-- Legs -->
    <path d="M120,150 L110,180 L100,210 L90,230 L80,250 L90,260 L100,240 L110,220 L120,200 L130,180 Z" />
    <path d="M190,160 L180,190 L170,220 L160,250 L170,260 L180,240 L190,220 L200,200 L210,180 Z" />
    <path d="M240,150 L230,180 L220,210 L210,240 L220,250 L230,230 L240,210 L250,190 L260,170 Z" />
    
    <!-- Tail -->
    <path d="M90,140 L70,130 L50,120 L30,110 L10,100 L5,90 L10,80 L20,90 L40,100 L60,110 L80,120 Z" />
  </g>
  
  <!-- Eyes -->
  <circle cx="370" cy="30" r="5" fill="black" />
  
  <!-- Mouth -->
  <path d="M350,30 L360,40 L370,50" stroke="black" stroke-width="2" fill="none" />
  
  <!-- Spots -->
  <circle cx="300" cy="50" r="8" fill="#388E3C" />
  <circle cx="330" cy="80" r="8" fill="#388E3C" />
  <circle cx="290" cy="100" r="8" fill="#388E3C" />
  <circle cx="320" cy="150" r="8" fill="#388E3C" />
  <circle cx="280" cy="160" r="8" fill="#388E3C" />
  <circle cx="240" cy="150" r="8" fill="#388E3C" />
  <circle cx="200" cy="150" r="8" fill="#388E3C" />
  <circle cx="160" cy="170" r="8" fill="#388E3C" />
  <circle cx="120" cy="160" r="8" fill="#388E3C" />
</svg> 